<svg width="375" height="345" viewBox="0 0 375 345" fill="none" xmlns="http://www.w3.org/2000/svg">
<path d="M259.33 220.16L223.63 245.76L178.23 270.361L110.03 221.461L148.73 168.26L198.13 156.76L259.33 220.16Z" fill="#FF9500"/>
<path d="M342.73 121.76C339.23 110.66 333.13 101.66 324.73 93.7605C317.83 87.2605 310.23 82.5604 301.33 79.6604C294.43 77.3604 287.43 76.6604 280.23 76.2604C271.73 75.7604 263.33 75.3605 254.93 76.3605C252.73 76.6605 250.43 77.1604 248.43 76.7604C243.23 75.7604 240.63 70.8605 242.53 65.0605C243.63 61.7605 245.63 58.6604 247.23 55.3604C250.23 49.6604 253.83 44.3604 255.83 38.4604C258.63 30.2604 253.13 23.1605 244.53 23.5605C239.93 23.7605 235.53 25.3604 231.03 26.3604C229.93 26.6604 228.93 27.1605 227.63 27.6605C227.63 25.9605 227.63 24.5604 227.63 23.2604C227.63 16.3604 223.43 12.4605 216.53 13.0605C209.73 13.6605 204.83 17.7604 200.23 22.2604C198.03 24.4604 196.03 26.8604 193.83 29.2604C192.73 27.9604 191.73 26.7605 190.63 25.6605C184.93 19.8605 176.63 19.9604 171.63 26.4604C169.23 29.5604 167.43 33.1604 166.43 36.8604C165.03 41.8604 164.63 47.2604 163.73 52.4604C163.73 52.4604 163.53 52.4604 163.43 52.3604C162.93 51.5604 162.43 50.8605 161.93 50.0605C156.33 41.6605 149.73 34.1604 140.93 28.9604C127.83 21.2604 114.33 20.5604 100.73 27.7604C86.0301 35.5604 79.6301 55.0604 90.4301 67.7604C89.8301 68.0604 89.2301 68.1604 88.6301 68.3604C82.9301 70.3604 76.9301 71.7604 71.5301 74.4604C37.5301 91.2604 24.7301 129.16 30.2301 160.66C34.1301 182.26 44.3301 200.66 59.7301 216.06C74.5301 230.86 91.8301 242.36 110.43 251.96C116.43 255.06 122.73 257.56 129.03 260.46C128.23 260.86 127.53 261.26 126.73 261.66C82.1301 287.96 68.1301 302.66 69.4301 310.96C69.5301 311.26 69.5301 311.66 69.6301 311.96C74.3301 331.56 91.1301 344.26 107.63 344.96C119.03 345.46 205.83 297.76 215.63 291.26C235.93 279.36 252.33 268.76 269.73 256.36C281.83 247.76 298.53 233.36 308.53 222.56C323.63 206.16 335.03 187.56 341.13 165.96C345.33 151.36 347.43 136.86 342.73 121.76ZM242.53 229.26C237.03 230.86 231.53 232.36 225.93 233.66C209.93 237.46 196.73 245.86 185.83 258.06C181.13 263.46 180.83 263.46 175.23 259.06C158.63 246.06 140.63 235.26 122.63 224.56C118.43 222.06 118.23 221.56 120.63 217.06C124.13 210.36 128.83 204.66 134.23 199.46C145.83 188.26 158.53 178.66 173.23 171.56C183.73 166.46 193.33 167.66 203.03 173.16C212.23 178.36 220.43 184.66 227.73 192.26C234.13 198.86 239.53 205.86 243.73 213.66C245.13 216.16 246.33 218.86 247.03 221.66C248.13 225.86 246.63 228.06 242.53 229.26Z" fill="#1865FE"/>
<path d="M103.23 185.56C118.97 185.56 131.73 171.457 131.73 154.06C131.73 136.663 118.97 122.56 103.23 122.56C87.4899 122.56 74.73 136.663 74.73 154.06C74.73 171.457 87.4899 185.56 103.23 185.56Z" fill="#02366B"/>
<path d="M268.83 195.16C284.184 195.16 296.63 181.639 296.63 164.96C296.63 148.281 284.184 134.76 268.83 134.76C253.477 134.76 241.03 148.281 241.03 164.96C241.03 181.639 253.477 195.16 268.83 195.16Z" fill="#02366B"/>
<path d="M273.23 200.961C304.434 200.961 329.73 176.247 329.73 145.761C329.73 115.274 304.434 90.5605 273.23 90.5605C242.026 90.5605 216.73 115.274 216.73 145.761C216.73 176.247 242.026 200.961 273.23 200.961Z" fill="white"/>
<path d="M99.8299 189.361C132.249 189.361 158.53 163.93 158.53 132.561C158.53 101.191 132.249 75.7605 99.8299 75.7605C67.4108 75.7605 41.1299 101.191 41.1299 132.561C41.1299 163.93 67.4108 189.361 99.8299 189.361Z" fill="white"/>
<path d="M268.83 195.16C284.184 195.16 296.63 181.639 296.63 164.96C296.63 148.281 284.184 134.76 268.83 134.76C253.477 134.76 241.03 148.281 241.03 164.96C241.03 181.639 253.477 195.16 268.83 195.16Z" fill="#02366B"/>
<path d="M103.23 185.561C118.97 185.561 131.73 171.458 131.73 154.061C131.73 136.664 118.97 122.561 103.23 122.561C87.4899 122.561 74.73 136.664 74.73 154.061C74.73 171.458 87.4899 185.561 103.23 185.561Z" fill="#02366B"/>
</svg>
