<svg width="234" height="234" viewBox="0 0 234 234" fill="none" xmlns="http://www.w3.org/2000/svg">
<path d="M172.126 65.4633C162.612 64.8049 154.082 67.5485 146.646 74.0235C141.178 79.0169 137.515 85.1627 136.038 92.4608C134.453 99.9784 135.437 107.167 139.1 113.971C145.497 125.933 157.909 132.134 171.743 130.433C190.115 128.238 203.456 110.843 200.886 92.4608C198.863 77.8646 186.725 66.451 172.126 65.4633ZM166.603 126.756C157.745 126.756 150.528 118.91 150.528 109.197C150.528 99.4845 157.691 91.6377 166.603 91.6377C175.516 91.6377 182.678 99.4845 182.678 109.197C182.678 118.91 175.461 126.756 166.603 126.756Z" fill="#1865FE"/>
<path d="M100.99 96.9055C102.411 89.9915 101.755 83.2422 98.8573 76.7672C91.3664 60.0858 71.9558 52.7877 54.8417 60.0309C41.1722 65.8475 32.5332 80.0047 34.1188 94.3265C35.8138 109.965 47.3508 121.818 62.8793 123.793C80.5949 126.043 97.0529 114.52 100.99 96.9055ZM69.8234 121.159C60.7469 121.159 53.3654 112.928 53.3654 102.832C53.3654 92.7352 60.7469 84.5043 69.8234 84.5043C78.8999 84.5043 86.2814 92.7352 86.2814 102.832C86.2814 112.928 78.8999 121.159 69.8234 121.159Z" fill="#1865FE"/>
<path d="M150.965 137.511C148.559 132.957 145.443 128.896 141.725 125.055C137.514 120.611 132.758 116.934 127.454 113.916C121.877 110.733 116.299 110.02 110.23 112.983C101.755 117.099 94.3737 122.696 87.703 129.226C84.5864 132.244 81.8525 135.591 79.8294 139.487C78.4625 142.121 78.5718 142.395 80.9777 143.877C91.3664 150.077 101.755 156.388 111.379 163.96C114.604 166.539 114.769 166.539 117.502 163.357C123.79 156.223 131.445 151.339 140.686 149.144C143.912 148.376 147.083 147.498 150.254 146.565C152.606 145.852 153.48 144.59 152.879 142.121C152.441 140.529 151.785 138.938 150.965 137.511Z" fill="#1865FE"/>
<path d="M206.587 0H27.4133C12.2812 0 0 12.2812 0 27.4133V206.587C0 221.719 12.2812 234 27.4133 234H206.587C221.719 234 234 221.719 234 206.587V27.4133C234 12.2812 221.719 0 206.587 0ZM207.793 109.598C204.284 122.154 197.65 133.009 188.933 142.549C183.121 148.854 173.471 157.188 166.454 162.232C156.366 169.469 146.881 175.61 135.093 182.518C129.391 186.301 79.1148 214.043 72.5356 213.769C62.9958 213.385 53.2366 205.984 50.5501 194.58C50.4953 194.415 50.4953 194.196 50.4405 193.977C49.6729 189.152 57.7873 180.599 83.6106 165.302C84.0492 165.083 84.4878 164.809 84.9264 164.59C81.2531 162.89 77.6345 161.464 74.1804 159.655C63.3796 154.063 53.4011 147.374 44.7933 138.766C35.8566 129.829 29.9353 119.083 27.6874 106.528C24.5075 88.216 31.9091 66.1757 51.5918 56.3618C54.717 54.7718 58.2259 54.0042 61.5155 52.798C61.8444 52.6884 62.2282 52.6336 62.5572 52.4691C56.3069 45.0675 59.9803 33.7184 68.5333 29.1678C76.4283 25.0009 84.2137 25.3847 91.8346 29.8805C96.9335 32.896 100.771 37.2821 104.006 42.1617C104.28 42.6003 104.554 43.0389 104.883 43.4775C104.938 43.5323 105.048 43.5323 105.048 43.5323C105.541 40.5169 105.815 37.3918 106.583 34.4311C107.131 32.2929 108.228 30.1546 109.598 28.4002C112.504 24.6172 117.274 24.5623 120.619 27.9616C121.276 28.6195 121.825 29.2774 122.483 30.045C123.744 28.6743 124.895 27.2488 126.211 25.9878C128.897 23.3561 131.694 20.9986 135.641 20.6148C139.643 20.2859 142.056 22.5337 142.056 26.5361C142.056 27.3037 142.056 28.1261 142.056 29.1129C142.823 28.8388 143.372 28.5098 144.03 28.3454C146.661 27.7423 149.183 26.8102 151.87 26.7006C156.859 26.4813 160.039 30.5933 158.394 35.3632C157.243 38.8172 155.159 41.8875 153.405 45.1771C152.473 47.0961 151.321 48.9053 150.664 50.8243C149.567 54.2235 151.047 57.0745 154.063 57.6228C155.214 57.8421 156.585 57.5679 157.846 57.4035C162.725 56.8004 167.605 57.0745 172.485 57.3486C176.651 57.568 180.709 58.0066 184.711 59.3224C189.865 61.022 194.251 63.7634 198.253 67.5464C203.133 72.1518 206.642 77.3604 208.67 83.8299C211.411 92.7118 210.205 101.155 207.793 109.598Z" fill="#1865FE"/>
</svg>
